<svg xmlns="http://www.w3.org/2000/svg" xmlns:xlink="http://www.w3.org/1999/xlink" width="882" height="882" viewBox="0 0 882 882"><defs><clipPath id="a"><rect width="882" height="882" transform="translate(909.428 141.76)" fill="#b98f45" stroke="rgba(236,151,0,0.8)" stroke-width="1"/></clipPath></defs><g transform="translate(-909.428 -141.76)" clip-path="url(#a)"><g transform="translate(911.985 159.961)"><g transform="translate(0 0)"><path d="M131.452,341.525s-21.869,63.317-44.039,69.522-18.736,24.821-18.736,24.821-1.2,19.881,14.037,19.881,20.3,8.675,48.738,0,30.785-47.171,30.785-47.171" transform="translate(74.753 385.869)" fill="#b98f45" stroke="rgba(236,151,0,0.8)" stroke-miterlimit="10" stroke-width="2.816"/><path d="M351.028,337.582s10,66.63,30.725,77.233,13.856,28.194,13.856,28.194-2.47,19.76-17.35,16.688-21.568,4.338-48.2-10-21.628-52.533-21.628-52.533" transform="translate(347.675 381.378)" fill="#b98f45" stroke="rgba(236,151,0,0.8)" stroke-miterlimit="10" stroke-width="2.816"/><path d="M861.8,413.445c.9-1.145,1.747-2.35,2.53-3.554a74.281,74.281,0,0,0-19.519-103.44c.542-1.386,1.024-2.711,1.506-4.1a75.065,75.065,0,0,0-47.352-94.463,16.649,16.649,0,0,1,.361-4.217,76.51,76.51,0,0,0-71.811-78.86,20.132,20.132,0,0,0-.843-4.217,78.679,78.679,0,0,0-91.21-57.353c-.542-1.265-1.265-2.53-1.928-3.735A80.426,80.426,0,0,0,529.677,27.821l-3.012-3.072A80.667,80.667,0,0,0,450.516,4.326,82.294,82.294,0,0,0,370.21,26.315c-1.325-.663-2.591-1.2-3.976-1.807a81.812,81.812,0,0,0-103.5,35.484l-4.338-.723c-26.447-3.856-56.63,21.266-75.667,40.364-11.205,11.205-18.555,20.423-19.1,20.483A81.752,81.752,0,0,0,115.8,142.888a75.968,75.968,0,0,0-23.074,58.558l-4.1,1.687a76.691,76.691,0,0,0-46.147,96.391c-1.265.723-2.47,1.627-3.675,2.47A75.125,75.125,0,0,0,20.733,406.156a37.943,37.943,0,0,0-2.892,3.314A74.4,74.4,0,0,0,28.926,513.632c-.663,1.325-1.265,2.591-1.807,3.976a74.7,74.7,0,0,0,39.52,97.777,35,35,0,0,1-.663,4.277,76.028,76.028,0,0,0,65.184,83.92,25.244,25.244,0,0,0,.542,4.217,77.956,77.956,0,0,0,86.089,64.04,36.507,36.507,0,0,0,1.687,3.916,79.824,79.824,0,0,0,100.909,39.46c.843,1.2,1.807,2.349,2.711,3.434A81.571,81.571,0,0,0,431.539,830.7l3.494,2.53A82.053,82.053,0,0,0,543.473,817.2a30.109,30.109,0,0,0,4.1,1.506A81.45,81.45,0,0,0,648,775.694c1.446,0,2.892.3,4.4.422a80.065,80.065,0,0,0,85.427-66.931l4.4-.723a78.317,78.317,0,0,0,64.16-86.21l3.976-1.807a76.269,76.269,0,0,0,38.315-99.222l3.374-2.771a74.824,74.824,0,0,0,9.76-105.006Z" transform="translate(-1.526 -1.491)" fill="#b98f45" stroke="rgba(236,151,0,0.8)" stroke-miterlimit="10" stroke-width="2.816"/><path d="M189.289,63.449c2.229-3.313-117.476-9.94-117.476-9.94s-79.583,5.181-48.2,44.7a724.791,724.791,0,0,1,53.256,75.245" transform="translate(15.29 57.766)" fill="#b98f45" stroke="rgba(236,151,0,0.8)" stroke-miterlimit="10" stroke-width="2.816"/><path d="M128.812,73.325c1.084-1.807-57.835-5.482-57.835-5.482s-39.279,2.892-23.8,24.7a397.181,397.181,0,0,1,26.266,41.629" transform="translate(46.367 74.096)" fill="#b98f45" stroke="rgba(236,151,0,0.8)" stroke-miterlimit="10" stroke-width="2.816"/><path d="M316.083,58.212c-2.35-3.916,123.862-11.687,123.862-11.687s84.342,6.024,50.967,52.895a852.921,852.921,0,0,0-56.268,89.041" transform="translate(356.775 49.81)" fill="#b98f45" stroke="rgba(236,151,0,0.8)" stroke-miterlimit="10" stroke-width="2.816"/><path d="M324.748,73.325c-1.084-1.807,57.835-5.482,57.835-5.482s39.279,2.892,24.1,24.7a397.158,397.158,0,0,0-26.267,41.629" transform="translate(366.665 74.096)" fill="#b98f45" stroke="rgba(236,151,0,0.8)" stroke-miterlimit="10" stroke-width="2.816"/><ellipse cx="281.341" cy="175.01" rx="281.341" ry="175.01" transform="translate(162.829 175.194)" fill="#b98f45" stroke="rgba(236,151,0,0.8)" stroke-miterlimit="10" stroke-width="2.816"/><circle cx="79.342" cy="79.342" r="79.342" transform="translate(180.541 209.111)" fill="#b98f45" stroke="rgba(236,151,0,0.8)" stroke-miterlimit="10" stroke-width="2.816"/><circle cx="13.434" cy="13.434" r="13.434" transform="translate(246.448 275.019)" fill="#b98f45" stroke="rgba(236,151,0,0.8)" stroke-miterlimit="10" stroke-width="2.816"/><circle cx="79.342" cy="79.342" r="79.342" transform="translate(540.501 209.111)" fill="#b98f45" stroke="rgba(236,151,0,0.8)" stroke-miterlimit="10" stroke-width="2.816"/><path d="M114.039,300.319a27.17,27.17,0,0,1-54.22,1.506,27.23,27.23,0,0,1,0-44.942,27.17,27.17,0,1,1,44.4,22.471,14.642,14.642,0,0,0-1.928-1.446,17.416,17.416,0,0,1,0,2.892,14.64,14.64,0,0,0,1.928-1.446,27.05,27.05,0,0,1,9.82,20.965Z" transform="translate(51.381 260.197)" fill="#b98f45" stroke="rgba(236,151,0,0.8)" stroke-miterlimit="10" stroke-width="2.816"/><path d="M340.807,263.823a27.17,27.17,0,0,1,54.22-1.506,27.23,27.23,0,0,1,0,44.942,27.17,27.17,0,1,1-44.4-22.471,14.624,14.624,0,0,0,1.928,1.446,17.4,17.4,0,0,1,0-2.892,14.651,14.651,0,0,0-1.928,1.446,27.05,27.05,0,0,1-9.82-20.965Z" transform="translate(384.885 267.415)" fill="#b98f45" stroke="rgba(236,151,0,0.8)" stroke-miterlimit="10" stroke-width="2.816"/><path d="M48.017,256.606a17.354,17.354,0,0,0,0-2.892,14.649,14.649,0,0,1,1.928,1.446A14.638,14.638,0,0,1,48.017,256.606Z" transform="translate(51.435 285.837)" fill="#b98f45" stroke="rgba(236,151,0,0.8)" stroke-miterlimit="10" stroke-width="2.816"/><path d="M48.017,256.606a17.354,17.354,0,0,0,0-2.892,14.649,14.649,0,0,1,1.928,1.446A14.638,14.638,0,0,1,48.017,256.606Z" transform="translate(51.435 285.837)" fill="#b98f45" stroke="rgba(236,151,0,0.8)" stroke-miterlimit="10" stroke-width="2.816"/><circle cx="13.434" cy="13.434" r="13.434" transform="translate(606.408 275.019)" fill="#b98f45" stroke="rgba(236,151,0,0.8)" stroke-miterlimit="10" stroke-width="2.816"/><line y1="32.472" transform="translate(444.17 492.802)" fill="none" stroke="rgba(236,151,0,0.8)" stroke-miterlimit="10" stroke-width="2.816"/><line x2="38.014" y2="17.23" transform="translate(406.156 475.572)" fill="none" stroke="rgba(236,151,0,0.8)" stroke-miterlimit="10" stroke-width="2.816"/><line x1="34.038" y2="23.736" transform="translate(444.17 469.066)" fill="none" stroke="rgba(236,151,0,0.8)" stroke-miterlimit="10" stroke-width="2.816"/><line x2="6.567" transform="translate(479.534 399.544)" fill="none" stroke="rgba(236,151,0,0.8)" stroke-miterlimit="10" stroke-width="2.816"/><line x2="6.567" transform="translate(407.421 399.544)" fill="#fff" stroke="rgba(236,151,0,0.8)" stroke-miterlimit="10" stroke-width="2.816"/><line x2="6.567" transform="translate(432.362 367.855)" fill="#fff" stroke="rgba(236,151,0,0.8)" stroke-miterlimit="10" stroke-width="2.816"/><line x2="6.024" transform="translate(479.534 367.855)" fill="#fff" stroke="rgba(236,151,0,0.8)" stroke-miterlimit="10" stroke-width="2.816"/></g></g></g></svg>