<svg xmlns="http://www.w3.org/2000/svg" xmlns:xlink="http://www.w3.org/1999/xlink" width="629" height="629" viewBox="0 0 629 629"><defs><clipPath id="a"><rect width="629" height="629" transform="translate(909.428 141.827)" fill="#b98f45" stroke="rgba(255,255,255,0.8)" stroke-width="1"/></clipPath></defs><g transform="translate(-909.428 -141.827)" clip-path="url(#a)"><g transform="translate(911.252 154.746)"><g transform="translate(0 0)"><path d="M113.41,341.525s-15.6,45.174-31.42,49.6-13.367,17.708-13.367,17.708-.86,14.184,10.015,14.184,14.485,6.189,34.772,0,21.964-33.655,21.964-33.655" transform="translate(33.709 177.442)" fill="#b98f45" stroke="rgba(255,255,255,0.8)" stroke-miterlimit="10" stroke-width="2.816"/><path d="M338.717,337.582s7.135,47.538,21.921,55.1,9.886,20.116,9.886,20.116-1.762,14.1-12.379,11.906-15.388,3.095-34.386-7.135-15.43-37.48-15.43-37.48" transform="translate(159.78 175.367)" fill="#b98f45" stroke="rgba(255,255,255,0.8)" stroke-miterlimit="10" stroke-width="2.816"/><path d="M615.3,295.4c.645-.817,1.246-1.676,1.805-2.536a53,53,0,0,0-13.926-73.8c.387-.989.731-1.934,1.075-2.923a53.556,53.556,0,0,0-33.784-67.4,11.876,11.876,0,0,1,.258-3.009,54.587,54.587,0,0,0-51.234-56.263,14.364,14.364,0,0,0-.6-3.009A56.134,56.134,0,0,0,453.817,45.55c-.387-.9-.9-1.805-1.375-2.665a57.381,57.381,0,0,0-74.1-22.608l-2.149-2.192A57.553,57.553,0,0,0,321.862,3.514,58.713,58.713,0,0,0,264.567,19.2c-.946-.473-1.848-.86-2.837-1.289a58.37,58.37,0,0,0-73.843,25.316l-3.095-.516c-18.869-2.751-40.4,15.173-53.985,28.8-7.995,7.995-13.238,14.571-13.625,14.614a58.326,58.326,0,0,0-34.128,16.247A54.2,54.2,0,0,0,66.593,144.15l-2.923,1.2a54.716,54.716,0,0,0-32.924,68.771c-.9.516-1.762,1.161-2.622,1.762A53.6,53.6,0,0,0,15.229,290.2a27.069,27.069,0,0,0-2.063,2.364,53.083,53.083,0,0,0,7.909,74.316c-.473.946-.9,1.848-1.289,2.837a53.3,53.3,0,0,0,28.2,69.76,24.972,24.972,0,0,1-.473,3.052A54.243,54.243,0,0,0,94.015,502.4a18.009,18.009,0,0,0,.387,3.009,55.619,55.619,0,0,0,61.421,45.69,26.044,26.044,0,0,0,1.2,2.794,56.951,56.951,0,0,0,71.995,28.153c.6.859,1.289,1.676,1.934,2.45a58.2,58.2,0,0,0,77.367,8.6l2.493,1.805a58.541,58.541,0,0,0,77.367-11.433,21.492,21.492,0,0,0,2.923,1.075,58.112,58.112,0,0,0,71.651-30.689c1.032,0,2.063.215,3.138.3A57.123,57.123,0,0,0,526.843,506.4l3.138-.516a55.876,55.876,0,0,0,45.776-61.507l2.837-1.289A54.415,54.415,0,0,0,605.93,372.3l2.407-1.977A53.384,53.384,0,0,0,615.3,295.4Z" transform="translate(-1.526 -1.491)" fill="#b98f45" stroke="rgba(255,255,255,0.8)" stroke-miterlimit="10" stroke-width="2.816"/><path d="M139.717,60.6c1.59-2.364-83.815-7.092-83.815-7.092S-.877,57.2,21.517,85.4a517.109,517.109,0,0,1,38,53.684" transform="translate(6.242 25.881)" fill="#b98f45" stroke="rgba(255,255,255,0.8)" stroke-miterlimit="10" stroke-width="2.816"/><path d="M104.386,71.754c.774-1.289-41.263-3.911-41.263-3.911S35.1,69.906,46.146,85.466a283.371,283.371,0,0,1,18.74,29.7" transform="translate(20.597 33.425)" fill="#b98f45" stroke="rgba(255,255,255,0.8)" stroke-miterlimit="10" stroke-width="2.816"/><path d="M316.074,54.863c-1.676-2.794,88.371-8.338,88.371-8.338s60.175,4.3,36.363,37.738a608.529,608.529,0,0,0-40.145,63.527" transform="translate(163.983 22.206)" fill="#b98f45" stroke="rgba(255,255,255,0.8)" stroke-miterlimit="10" stroke-width="2.816"/><path d="M324.743,71.754c-.774-1.289,41.263-3.911,41.263-3.911S394.03,69.906,383.2,85.466a283.354,283.354,0,0,0-18.74,29.7" transform="translate(168.552 33.425)" fill="#b98f45" stroke="rgba(255,255,255,0.8)" stroke-miterlimit="10" stroke-width="2.816"/><ellipse cx="200.726" cy="124.863" rx="200.726" ry="124.863" transform="translate(116.172 124.994)" fill="#b98f45" stroke="rgba(255,255,255,0.8)" stroke-miterlimit="10" stroke-width="2.816"/><circle cx="56.607" cy="56.607" r="56.607" transform="translate(128.809 149.193)" fill="#b98f45" stroke="rgba(255,255,255,0.8)" stroke-miterlimit="10" stroke-width="2.816"/><circle cx="9.585" cy="9.585" r="9.585" transform="translate(175.831 196.215)" fill="#b98f45" stroke="rgba(255,255,255,0.8)" stroke-miterlimit="10" stroke-width="2.816"/><circle cx="56.607" cy="56.607" r="56.607" transform="translate(385.626 149.193)" fill="#b98f45" stroke="rgba(255,255,255,0.8)" stroke-miterlimit="10" stroke-width="2.816"/><path d="M95.107,280.516a19.385,19.385,0,0,1-38.684,1.075,19.428,19.428,0,0,1,0-32.064A19.385,19.385,0,1,1,88.1,265.558a10.441,10.441,0,0,0-1.375-1.031,12.426,12.426,0,0,1,0,2.063,10.443,10.443,0,0,0,1.375-1.032,19.3,19.3,0,0,1,7.006,14.958Z" transform="translate(22.913 119.39)" fill="#b98f45" stroke="rgba(255,255,255,0.8)" stroke-miterlimit="10" stroke-width="2.816"/><path d="M340.784,256.293a19.385,19.385,0,0,1,38.684-1.075,19.428,19.428,0,0,1,0,32.064A19.385,19.385,0,1,1,347.79,271.25a10.429,10.429,0,0,0,1.375,1.032,12.416,12.416,0,0,1,0-2.063,10.452,10.452,0,0,0-1.375,1.032,19.3,19.3,0,0,1-7.006-14.958Z" transform="translate(176.968 122.724)" fill="#b98f45" stroke="rgba(255,255,255,0.8)" stroke-miterlimit="10" stroke-width="2.816"/><path d="M48.017,255.778a12.381,12.381,0,0,0,0-2.063,10.451,10.451,0,0,1,1.375,1.032A10.441,10.441,0,0,1,48.017,255.778Z" transform="translate(22.938 131.234)" fill="#b98f45" stroke="rgba(255,255,255,0.8)" stroke-miterlimit="10" stroke-width="2.816"/><path d="M48.017,255.778a12.381,12.381,0,0,0,0-2.063,10.451,10.451,0,0,1,1.375,1.032A10.441,10.441,0,0,1,48.017,255.778Z" transform="translate(22.938 131.234)" fill="#b98f45" stroke="rgba(255,255,255,0.8)" stroke-miterlimit="10" stroke-width="2.816"/><circle cx="9.585" cy="9.585" r="9.585" transform="translate(432.648 196.215)" fill="#b98f45" stroke="rgba(255,255,255,0.8)" stroke-miterlimit="10" stroke-width="2.816"/><line y1="23.167" transform="translate(316.898 351.594)" fill="none" stroke="rgba(255,255,255,0.8)" stroke-miterlimit="10" stroke-width="2.816"/><line x2="27.122" y2="12.293" transform="translate(289.776 339.302)" fill="none" stroke="rgba(255,255,255,0.8)" stroke-miterlimit="10" stroke-width="2.816"/><line x1="24.285" y2="16.935" transform="translate(316.898 334.66)" fill="none" stroke="rgba(255,255,255,0.8)" stroke-miterlimit="10" stroke-width="2.816"/><line x2="4.685" transform="translate(342.128 285.058)" fill="none" stroke="rgba(255,255,255,0.8)" stroke-miterlimit="10" stroke-width="2.816"/><line x2="4.685" transform="translate(290.679 285.058)" fill="#fff" stroke="rgba(255,255,255,0.8)" stroke-miterlimit="10" stroke-width="2.816"/><line x2="4.685" transform="translate(308.473 262.45)" fill="#fff" stroke="rgba(255,255,255,0.8)" stroke-miterlimit="10" stroke-width="2.816"/><line x2="4.298" transform="translate(342.128 262.45)" fill="#fff" stroke="rgba(255,255,255,0.8)" stroke-miterlimit="10" stroke-width="2.816"/></g></g></g></svg>