<svg xmlns="http://www.w3.org/2000/svg" xmlns:xlink="http://www.w3.org/1999/xlink" width="187" height="193" viewBox="0 0 187 193"><defs><clipPath id="a"><rect width="187" height="193" transform="translate(909.242 141.76)" fill="#b98f45" stroke="#fff" stroke-width="1"/></clipPath></defs><g transform="translate(-909.242 -141.76)" opacity="0.55" clip-path="url(#a)"><g transform="translate(909.97 145.743)"><g transform="translate(0 0)"><path d="M81.827,341.525S77.193,355.38,72.5,356.737s-3.97,5.431-3.97,5.431-.255,4.35,2.974,4.35,4.3,1.9,10.326,0S88.349,356.2,88.349,356.2" transform="translate(-38.137 -182.356)" fill="#b98f45" stroke="#fff" stroke-miterlimit="10" stroke-width="2.816"/><path d="M317.166,337.582s2.119,14.58,6.51,16.9,2.936,6.169,2.936,6.169-.523,4.324-3.676,3.652-4.57.949-10.212-2.188-4.582-11.5-4.582-11.5" transform="translate(-169.127 -180.258)" fill="#b98f45" stroke="#fff" stroke-miterlimit="10" stroke-width="2.816"/><path d="M183.8,91.635c.191-.25.37-.514.536-.778a16.683,16.683,0,0,0,2.484-12.2,16.3,16.3,0,0,0-6.62-10.43c.115-.3.217-.593.319-.9a16.552,16.552,0,0,0-10.033-20.671,3.76,3.76,0,0,1,.077-.923,16.543,16.543,0,0,0-15.215-17.256,4.533,4.533,0,0,0-.179-.923A16.661,16.661,0,0,0,135.844,15c-.115-.277-.268-.554-.408-.817a16.759,16.759,0,0,0-22.006-6.934l-.638-.672A16.721,16.721,0,0,0,96.657,2.111,17.067,17.067,0,0,0,79.642,6.923c-.281-.145-.549-.264-.842-.4A17.073,17.073,0,0,0,56.87,14.292l-.919-.158c-5.6-.844-12,4.653-16.032,8.832-2.374,2.452-3.931,4.469-4.046,4.482a17.1,17.1,0,0,0-10.135,4.983,16.917,16.917,0,0,0-4.889,12.814l-.868.369A16.932,16.932,0,0,0,10.2,66.707c-.268.158-.523.356-.779.54A16.786,16.786,0,0,0,5.6,90.04a8.227,8.227,0,0,0-.613.725,16.648,16.648,0,0,0,2.349,22.793c-.14.29-.268.567-.383.87a16.549,16.549,0,0,0,8.373,21.4,7.892,7.892,0,0,1-.14.936,16.538,16.538,0,0,0,13.811,18.364,5.7,5.7,0,0,0,.115.923,16.6,16.6,0,0,0,18.24,14.013,8.128,8.128,0,0,0,.357.857,16.7,16.7,0,0,0,21.38,8.635c.179.264.383.514.574.751a16.894,16.894,0,0,0,22.976,2.637l.74.554a17.006,17.006,0,0,0,22.976-3.507,6.25,6.25,0,0,0,.868.33A17.067,17.067,0,0,0,138.5,170.9c.306,0,.613.066.932.092a17.085,17.085,0,0,0,18.1-14.646l.932-.158a17.065,17.065,0,0,0,13.594-18.864l.842-.4a16.913,16.913,0,0,0,8.118-21.712l.715-.606A16.745,16.745,0,0,0,183.8,91.635Z" transform="translate(-1.526 -1.491)" fill="#b98f45" stroke="#fff" stroke-miterlimit="10" stroke-width="2.816"/><path d="M52.942,55.684c.472-.725-24.891-2.175-24.891-2.175S11.19,54.642,17.84,63.29A158.7,158.7,0,0,1,29.124,79.755" transform="translate(-9.597 -29.159)" fill="#b98f45" stroke="#fff" stroke-miterlimit="10" stroke-width="2.816"/><path d="M61.629,69.043c.23-.4-12.254-1.2-12.254-1.2s-8.322.633-5.042,5.4A87.373,87.373,0,0,1,49.9,82.357" transform="translate(-24.513 -36.784)" fill="#b98f45" stroke="#fff" stroke-miterlimit="10" stroke-width="2.816"/><path d="M316.057,49.082c-.5-.857,26.244-2.557,26.244-2.557s17.87,1.318,10.8,11.574a187.62,187.62,0,0,0-11.922,19.484" transform="translate(-173.494 -25.444)" fill="#b98f45" stroke="#fff" stroke-miterlimit="10" stroke-width="2.816"/><path d="M324.736,69.043c-.23-.4,12.254-1.2,12.254-1.2s8.322.633,5.106,5.4a87.366,87.366,0,0,0-5.565,9.109" transform="translate(-178.241 -36.784)" fill="#b98f45" stroke="#fff" stroke-miterlimit="10" stroke-width="2.816"/><ellipse cx="59.61" cy="38.296" rx="59.61" ry="38.296" transform="translate(34.5 38.336)" fill="#b98f45" stroke="#fff" stroke-miterlimit="10" stroke-width="2.816"/><ellipse cx="16.811" cy="17.362" rx="16.811" ry="17.362" transform="translate(38.253 45.758)" fill="#b98f45" stroke="#fff" stroke-miterlimit="10" stroke-width="2.816"/><ellipse cx="2.846" cy="2.94" rx="2.846" ry="2.94" transform="translate(52.217 60.18)" fill="#b98f45" stroke="#fff" stroke-miterlimit="10" stroke-width="2.816"/><ellipse cx="16.811" cy="17.362" rx="16.811" ry="17.362" transform="translate(114.52 45.758)" fill="#b98f45" stroke="#fff" stroke-miterlimit="10" stroke-width="2.816"/><path d="M61.968,246.33a5.749,5.749,0,0,1-11.488.33,6.07,6.07,0,0,1,0-9.834,5.887,5.887,0,0,1,4.645-5.508,5.711,5.711,0,0,1,6.31,3.3,6.076,6.076,0,0,1-1.547,7.127,3.113,3.113,0,0,0-.408-.316,3.936,3.936,0,0,1,0,.633,3.111,3.111,0,0,0,.408-.316A6,6,0,0,1,61.968,246.33Z" transform="translate(-26.919 -123.678)" fill="#b98f45" stroke="#fff" stroke-miterlimit="10" stroke-width="2.816"/><path d="M340.743,243.294a5.749,5.749,0,0,1,11.488-.33,6.07,6.07,0,0,1,0,9.834,5.887,5.887,0,0,1-4.645,5.508,5.711,5.711,0,0,1-6.31-3.3,6.076,6.076,0,0,1,1.547-7.127,3.106,3.106,0,0,0,.408.316,3.943,3.943,0,0,1,0-.633,3.118,3.118,0,0,0-.408.316,6,6,0,0,1-2.081-4.588Z" transform="translate(-186.986 -127.048)" fill="#b98f45" stroke="#fff" stroke-miterlimit="10" stroke-width="2.816"/><path d="M48.017,254.347a3.921,3.921,0,0,0,0-.633,3.112,3.112,0,0,1,.408.316A3.111,3.111,0,0,1,48.017,254.347Z" transform="translate(-26.945 -135.649)" fill="#b98f45" stroke="#fff" stroke-miterlimit="10" stroke-width="2.816"/><path d="M48.017,254.347a3.921,3.921,0,0,0,0-.633,3.112,3.112,0,0,1,.408.316A3.111,3.111,0,0,1,48.017,254.347Z" transform="translate(-26.945 -135.649)" fill="#b98f45" stroke="#fff" stroke-miterlimit="10" stroke-width="2.816"/><ellipse cx="2.846" cy="2.94" rx="2.846" ry="2.94" transform="translate(128.484 60.18)" fill="#b98f45" stroke="#fff" stroke-miterlimit="10" stroke-width="2.816"/><line y1="7.105" transform="translate(94.11 107.835)" fill="none" stroke="#fff" stroke-miterlimit="10" stroke-width="2.816"/><line x2="8.054" y2="3.77" transform="translate(86.055 104.065)" fill="none" stroke="#fff" stroke-miterlimit="10" stroke-width="2.816"/><line x1="7.212" y2="5.194" transform="translate(94.11 102.641)" fill="none" stroke="#fff" stroke-miterlimit="10" stroke-width="2.816"/><line x2="1.391" transform="translate(101.602 87.428)" fill="none" stroke="#fff" stroke-miterlimit="10" stroke-width="2.816"/><line x2="1.391" transform="translate(86.323 87.428)" fill="#fff" stroke="#fff" stroke-miterlimit="10" stroke-width="2.816"/><line x2="1.391" transform="translate(91.608 80.494)" fill="#fff" stroke="#fff" stroke-miterlimit="10" stroke-width="2.816"/><line x2="1.276" transform="translate(101.602 80.494)" fill="#fff" stroke="#fff" stroke-miterlimit="10" stroke-width="2.816"/></g></g></g></svg>